<?xml version="1.0" encoding="UTF-8"?>
<!DOCTYPE svg PUBLIC "-//W3C//DTD SVG 1.1//EN" "http://www.w3.org/Graphics/SVG/1.1/DTD/svg11.dtd">
<svg xmlns="http://www.w3.org/2000/svg" version="1.1" width="512px" height="512px" style="shape-rendering:geometricPrecision; text-rendering:geometricPrecision; image-rendering:optimizeQuality; fill-rule:evenodd; clip-rule:evenodd" xmlns:xlink="http://www.w3.org/1999/xlink">
<g><path style="opacity:0.972" fill="#000000" d="M 251.5,41.5 C 264.91,40.7662 273.41,46.7662 277,59.5C 277.333,135.5 277.667,211.5 278,287.5C 301.833,263.667 325.667,239.833 349.5,216C 368.782,207.973 380.448,214.139 384.5,234.5C 384.06,239.202 382.56,243.536 380,247.5C 342.833,284.667 305.667,321.833 268.5,359C 259.833,363.667 251.167,363.667 242.5,359C 205.333,321.833 168.167,284.667 131,247.5C 124.052,234.799 126.218,223.966 137.5,215C 145.657,211.457 153.657,211.791 161.5,216C 185.333,239.833 209.167,263.667 233,287.5C 233.333,211.5 233.667,135.5 234,59.5C 236.014,49.654 241.847,43.654 251.5,41.5 Z"/></g>
<g><path style="opacity:0.988" fill="#000000" d="M 57.5,404.5 C 189.5,404.333 321.5,404.5 453.5,405C 463.79,408.393 469.124,415.559 469.5,426.5C 468.774,436.449 463.774,443.283 454.5,447C 321.833,447.667 189.167,447.667 56.5,447C 43.9468,441.349 39.4468,431.849 43,418.5C 45.774,411.557 50.6073,406.89 57.5,404.5 Z"/></g>
</svg>
