<?xml version="1.0" encoding="UTF-8"?>
<!DOCTYPE svg PUBLIC "-//W3C//DTD SVG 1.1//EN" "http://www.w3.org/Graphics/SVG/1.1/DTD/svg11.dtd">
<svg xmlns="http://www.w3.org/2000/svg" version="1.1" width="512px" height="512px" style="shape-rendering:geometricPrecision; text-rendering:geometricPrecision; image-rendering:optimizeQuality; fill-rule:evenodd; clip-rule:evenodd" xmlns:xlink="http://www.w3.org/1999/xlink">
<g><path style="opacity:0.974" fill="#000000" d="M 337.5,131.5 C 341.463,131.089 345.13,131.922 348.5,134C 358,143.5 367.5,153 377,162.5C 379.899,166.937 380.232,171.603 378,176.5C 324.833,229.667 271.667,282.833 218.5,336C 214.167,339.333 209.833,339.333 205.5,336C 181.333,311.833 157.167,287.667 133,263.5C 131,259.5 131,255.5 133,251.5C 143.5,241 154,230.5 164.5,220C 168.649,218.031 172.649,218.365 176.5,221C 188.333,232.833 200.167,244.667 212,256.5C 253.728,214.605 295.562,172.938 337.5,131.5 Z"/></g>
<g><path style="opacity:0.946" fill="#000000" d="M 134.5,359.5 C 215.167,359.333 295.834,359.5 376.5,360C 382.542,363.748 384.042,368.915 381,375.5C 379.786,377.049 378.286,378.215 376.5,379C 295.833,379.667 215.167,379.667 134.5,379C 128.458,375.252 126.958,370.085 130,363.5C 131.397,361.93 132.897,360.596 134.5,359.5 Z"/></g>
</svg>
