<?xml version="1.0" encoding="UTF-8"?>
<!DOCTYPE svg PUBLIC "-//W3C//DTD SVG 1.1//EN" "http://www.w3.org/Graphics/SVG/1.1/DTD/svg11.dtd">
<svg xmlns="http://www.w3.org/2000/svg" version="1.1" width="512px" height="512px" style="shape-rendering:geometricPrecision; text-rendering:geometricPrecision; image-rendering:optimizeQuality; fill-rule:evenodd; clip-rule:evenodd" xmlns:xlink="http://www.w3.org/1999/xlink">
<g><path style="opacity:0.966" fill="#000000" d="M 159.5,-0.5 C 223.167,-0.5 286.833,-0.5 350.5,-0.5C 373.704,4.86995 388.204,19.2033 394,42.5C 395.157,113.47 395.657,184.47 395.5,255.5C 395.657,326.53 395.157,397.53 394,468.5C 388.204,491.797 373.704,506.13 350.5,511.5C 286.833,511.5 223.167,511.5 159.5,511.5C 136.515,505.348 122.015,490.681 116,467.5C 115.333,326.167 115.333,184.833 116,43.5C 121.681,19.986 136.181,5.31931 159.5,-0.5 Z M 163.5,23.5 C 224.501,23.3333 285.501,23.5 346.5,24C 361.907,28.2984 370.074,38.4651 371,54.5C 371.667,188.5 371.667,322.5 371,456.5C 370.035,470.457 363.201,480.291 350.5,486C 288.211,487.652 225.878,487.985 163.5,487C 151,483.833 143.167,476 140,463.5C 139.333,324.833 139.333,186.167 140,47.5C 143.349,34.9853 151.182,26.9853 163.5,23.5 Z"/></g>
<g><path style="opacity:0.956" fill="#000000" d="M 216.5,45.5 C 242.169,45.3334 267.835,45.5 293.5,46C 301.248,49.5753 303.748,55.4087 301,63.5C 299.337,65.9167 297.171,67.75 294.5,69C 268.167,69.6667 241.833,69.6667 215.5,69C 208.451,64.5131 206.617,58.3465 210,50.5C 211.965,48.4497 214.132,46.783 216.5,45.5 Z"/></g>
<g><path style="opacity:0.95" fill="#000000" d="M 253.5,417.5 C 272.637,419.139 280.804,429.473 278,448.5C 271.985,462.591 261.485,467.757 246.5,464C 233.396,457.283 228.896,446.783 233,432.5C 237.211,423.773 244.044,418.773 253.5,417.5 Z"/></g>
</svg>
