<?xml version="1.0" standalone="no"?>
<!DOCTYPE svg PUBLIC "-//W3C//DTD SVG 20010904//EN"
 "http://www.w3.org/TR/2001/REC-SVG-20010904/DTD/svg10.dtd">
<svg version="1.0" xmlns="http://www.w3.org/2000/svg"
 width="500.000000pt" height="500.000000pt" viewBox="0 0 500.000000 500.000000"
 preserveAspectRatio="xMidYMid meet">

<g transform="translate(0.000000,500.000000) scale(0.100000,-0.100000)"
fill="#000000" stroke="none">
<path d="M3397 3903 c-4 -3 -7 -615 -7 -1359 0 -1223 2 -1352 16 -1358 23 -9
497 -7 512 2 10 7 12 286 10 1363 l-3 1354 -261 3 c-143 1 -263 -1 -267 -5z"/>
<path d="M2583 3742 c-123 -81 -305 -201 -405 -267 -402 -263 -1238 -816
-1316 -870 -69 -47 -81 -60 -70 -70 11 -11 1197 -795 1573 -1040 61 -40 186
-122 279 -183 92 -62 172 -112 177 -112 5 0 9 569 9 1345 0 1070 -3 1345 -12
1344 -7 0 -113 -66 -235 -147z"/>
</g>
</svg>
