<?xml version="1.0" standalone="no"?>
<!DOCTYPE svg PUBLIC "-//W3C//DTD SVG 20010904//EN"
 "http://www.w3.org/TR/2001/REC-SVG-20010904/DTD/svg10.dtd">
<svg version="1.0" xmlns="http://www.w3.org/2000/svg"
 width="500.000000pt" height="500.000000pt" viewBox="0 0 500.000000 500.000000"
 preserveAspectRatio="xMidYMid meet">

<g transform="translate(0.000000,500.000000) scale(0.100000,-0.100000)"
fill="#000000" stroke="none">
<path d="M1500 2531 c0 -853 2 -1551 4 -1551 3 0 173 111 378 246 205 135 479
316 608 401 129 85 434 286 677 446 243 161 497 327 563 370 70 45 118 82 114
89 -6 10 -434 295 -1229 818 -442 291 -1083 712 -1102 724 -10 6 -13 -306 -13
-1543z"/>
</g>
</svg>
