<?xml version="1.0" encoding="UTF-8"?>
<!DOCTYPE svg PUBLIC "-//W3C//DTD SVG 1.1//EN" "http://www.w3.org/Graphics/SVG/1.1/DTD/svg11.dtd">
<svg xmlns="http://www.w3.org/2000/svg" version="1.1" width="512px" height="512px" style="shape-rendering:geometricPrecision; text-rendering:geometricPrecision; image-rendering:optimizeQuality; fill-rule:evenodd; clip-rule:evenodd" xmlns:xlink="http://www.w3.org/1999/xlink">
<g><path style="opacity:0.98" fill="#000000" d="M 207.5,-0.5 C 236.5,-0.5 265.5,-0.5 294.5,-0.5C 300.716,3.78919 303.049,9.78919 301.5,17.5C 308.555,17.2765 313.721,20.2765 317,26.5C 326.302,57.1988 334.802,87.8654 342.5,118.5C 281.558,81.2017 220.558,81.2017 159.5,118.5C 167.269,86.664 176.436,54.9973 187,23.5C 190.495,19.278 194.995,17.278 200.5,17.5C 199.003,9.85182 201.336,3.85182 207.5,-0.5 Z"/></g>
<g><path style="opacity:0.959" fill="#000000" d="M 241.5,100.5 C 308.415,99.6709 357.915,128.338 390,186.5C 396.133,186.538 401.133,188.871 405,193.5C 409.802,205.239 412.968,217.406 414.5,230C 414.422,235.586 411.756,239.419 406.5,241.5C 405.167,250.833 405.167,260.167 406.5,269.5C 411.756,271.581 414.422,275.414 414.5,281C 412.968,293.594 409.802,305.761 405,317.5C 401.345,322.168 396.511,324.334 390.5,324C 360.698,379.337 314.198,408.171 251,410.5C 180.457,406.916 131.79,372.583 105,307.5C 87.1792,250.275 97.1792,198.608 135,152.5C 163.773,121.364 199.273,104.03 241.5,100.5 Z M 246.5,128.5 C 302.154,129.721 342.321,155.055 367,204.5C 386.261,254.263 378.928,299.596 345,340.5C 303.922,381.384 256.089,391.884 201.5,372C 152.879,348.511 127.212,309.678 124.5,255.5C 127.212,201.322 152.879,162.489 201.5,139C 216.087,133.12 231.087,129.62 246.5,128.5 Z"/></g>
<g><path style="opacity:0.981" fill="#000000" d="M 294.5,511.5 C 265.5,511.5 236.5,511.5 207.5,511.5C 201.336,507.148 199.003,501.148 200.5,493.5C 193.299,493.317 188.133,489.983 185,483.5C 175.668,453.144 167.168,422.811 159.5,392.5C 220.558,429.826 281.558,429.826 342.5,392.5C 334.802,423.135 326.302,453.801 317,484.5C 313.416,490.256 308.249,493.256 301.5,493.5C 303.049,501.211 300.716,507.211 294.5,511.5 Z"/></g>
</svg>
